<?xml version="1.0" encoding="UTF-8"?>
<!DOCTYPE svg PUBLIC "-//W3C//DTD SVG 1.1//EN" "http://www.w3.org/Graphics/SVG/1.1/DTD/svg11.dtd">
<!-- Creator: CorelDRAW -->
<svg xmlns="http://www.w3.org/2000/svg" xml:space="preserve" width="1.70666in" height="1.70666in" version="1.1" style="shape-rendering:geometricPrecision; text-rendering:geometricPrecision; image-rendering:optimizeQuality; fill-rule:evenodd; clip-rule:evenodd"
viewBox="0 0 1706.66 1706.66"
 xmlns:xlink="http://www.w3.org/1999/xlink"
 xmlns:xodm="http://www.corel.com/coreldraw/odm/2003">
 <defs>
  <style type="text/css">
   <![CDATA[
    .fil0 {fill:#4B6274}
    .fil1 {fill:#E2725A}
    .fil2 {fill:#4B6274;fill-rule:nonzero}
   ]]>
  </style>
 </defs>
 <g id="Layer_x0020_1">
  <metadata id="CorelCorpID_0Corel-Layer"/>
  <path class="fil0" d="M1176.45 320.35c-10.97,0 -20,-8.89 -20,-20l0 -122.08c0,-30.35 34.54,-10.1 61.81,-37.36 37.22,-37.22 10.6,-100.97 -41.67,-100.97 -32.5,0 -59.17,26.53 -59.17,59.17 0,26.31 -39.96,26.35 -40,0 -0.14,-54.58 44.3,-99.02 99.02,-99.02 119.46,0 134.77,172.75 20,196.39l0 104.03c0,10.83 -9.03,19.86 -20,19.86z"/>
  <path class="fil0" d="M530.35 320.35c-11.11,0 -20,-8.89 -20,-20l0 -122.08c0,-30.35 34.54,-10.1 61.81,-37.36 37.2,-37.2 10.68,-100.97 -41.8,-100.97 -32.64,0 -59.17,26.53 -59.17,59.17 0,26.36 -40,26.36 -40,0 0,-54.58 44.44,-99.17 99.17,-99.17 120.1,0 134.11,173.58 20,196.25l0 104.03c-0,11.11 -8.89,20.14 -20,20.14z"/>
  <path class="fil1" d="M530.35 1706.73c-35.56,0 -63.19,-25.83 -70.56,-65.83 -8.75,-48.06 9.17,-109.44 53.47,-182.36 7.73,-12.75 26.44,-12.75 34.17,0 44.31,72.92 62.22,134.31 53.47,182.36 -7.36,40 -35,65.83 -70.56,65.83zm0 -197.22c-84.51,161.88 19.3,190.74 31.25,124.17 5.7,-31.53 -5,-74.03 -31.25,-124.17z"/>
  <path class="fil1" d="M1176.45 1706.73c-35.56,0 -63.19,-25.83 -70.56,-65.83 -8.75,-48.06 9.17,-109.44 53.47,-182.36 7.73,-12.75 26.44,-12.75 34.17,0 44.31,72.92 62.22,134.31 53.47,182.36 -7.36,40 -35,65.83 -70.56,65.83zm0 -197.22c-84.51,161.88 19.3,190.74 31.25,124.17 5.7,-31.53 -5.14,-74.03 -31.25,-124.17z"/>
  <path class="fil2" d="M547.26 645.41c224.63,307.37 260.88,531.37 213.78,670.17 -78.36,230.93 -383.12,230.93 -461.47,-0 -47.15,-138.98 -10.76,-363.36 214.63,-671.33l-0.04 -0.03c8.39,-11.46 25.76,-10.55 33.09,1.2zm175.97 657.36c42.47,-125.16 8.99,-328.83 -192.93,-612.62 -201.91,283.79 -235.39,487.45 -192.93,612.61 66.05,194.66 319.8,194.66 385.85,0z"/>
  <path class="fil2" d="M1193.31 645.41c224.63,307.37 260.88,531.37 213.78,670.17 -78.36,230.93 -383.11,230.93 -461.47,-0 -47.16,-138.98 -10.76,-363.36 214.63,-671.33l-0.04 -0.03c8.39,-11.46 25.76,-10.55 33.09,1.2zm175.97 657.36c42.47,-125.17 8.99,-328.83 -192.92,-612.62 -201.91,283.79 -235.4,487.45 -192.93,612.61 66.05,194.66 319.8,194.66 385.85,0z"/>
  <path class="fil1" d="M530.35 1388.26c-72.08,0 -128.61,-53.89 -143.75,-137.08 -25.14,-137.08 55,-306.67 126.67,-424.72 7.73,-12.76 26.45,-12.74 34.17,0 71.67,118.19 151.8,287.77 126.67,424.72 -15.14,83.33 -71.52,137.08 -143.75,137.08zm0 -512.22c-279.98,487.64 66.59,575.14 104.44,367.92 20.97,-114.31 -41.39,-258.19 -104.44,-367.92z"/>
  <path class="fil1" d="M530.35 514.1c-11.11,0 -20,-8.89 -20,-20l0 -77.5c0,-26.36 40,-26.36 40,0l0 77.5c0,10.97 -8.89,20 -20,20z"/>
  <path class="fil0" d="M530.35 676.04c-5.14,0 -10.28,-1.94 -14.17,-5.83l-80.97 -80.97c-7.78,-7.78 -7.78,-20.42 0,-28.33l80.97 -80.97c7.78,-7.78 20.42,-7.78 28.33,0l80.97 80.97c7.77,7.77 7.78,20.56 0,28.33l-80.97 80.97c-3.89,3.9 -9.03,5.84 -14.17,5.84zm-52.78 -100.97l52.78 52.78 52.78 -52.78 -52.78 -52.78 -52.78 52.78z"/>
  <path class="fil1" d="M530.35 436.6c-43.06,0 -78.06,-35 -78.06,-78.06 0,-43.06 35,-78.06 78.06,-78.06 43.06,0 78.06,35 78.06,78.06 0,43.06 -35,78.06 -78.06,78.06zm0 -116.25c-50.08,0 -50.08,76.11 0,76.11 50.02,0 50.18,-76.11 0,-76.11z"/>
  <path class="fil1" d="M1176.45 514.1c-10.97,0 -20,-8.89 -20,-20l0 -77.5c0,-26.33 40,-26.33 40,0l0 77.5c0,10.97 -9.03,20 -20,20z"/>
  <path class="fil0" d="M1176.45 676.04c-5.14,0 -10.28,-1.94 -14.17,-5.83l-80.97 -80.97c-7.78,-7.78 -7.78,-20.42 0,-28.33l80.97 -80.97c7.78,-7.78 20.42,-7.78 28.33,0l80.97 80.97c7.78,7.78 7.78,20.42 0,28.33l-80.97 80.97c-3.89,3.89 -9.03,5.83 -14.17,5.83zm-52.78 -100.97l52.78 52.78 52.78 -52.78 -52.78 -52.78 -52.78 52.78z"/>
  <path class="fil1" d="M1176.45 436.6c-43.06,0 -78.06,-35 -78.06,-78.06 0,-43.06 35,-78.06 78.06,-78.06 43.06,0 78.06,35 78.06,78.06 0,43.06 -35,78.06 -78.06,78.06zm0 -116.25c-50.08,0 -50.08,76.11 0,76.11 50.08,0 50.08,-76.11 0,-76.11z"/>
  <path class="fil1" d="M1176.45 1388.26c-72.08,0 -128.61,-53.89 -143.89,-137.08 -25,-137.08 55.14,-306.67 126.67,-424.72 7.71,-12.74 26.43,-12.76 34.17,0 71.67,118.05 151.8,287.63 126.67,424.72 -15,83.33 -71.52,137.08 -143.61,137.08zm0 -512.22c-279.98,487.64 66.59,575.14 104.44,367.92 20.97,-114.31 -41.53,-258.19 -104.44,-367.92z"/>
 </g>
</svg>
