<?xml version="1.0" encoding="utf-8"?>
<!-- Generator: Adobe Illustrator 25.2.3, SVG Export Plug-In . SVG Version: 6.00 Build 0)  -->
<svg version="1.1" id="Color" xmlns="http://www.w3.org/2000/svg" xmlns:xlink="http://www.w3.org/1999/xlink" x="0px" y="0px"
	 viewBox="0 0 512 512" enable-background="new 0 0 512 512" xml:space="preserve">
<g>
	<path fill="#808080" d="M503.825,138.172l-10.56-53.68c-4-25.2-18.56-47.68-39.92-61.68c-14.8-9.68-32.16-14.72-49.6-14.72
		c-7.6,0-15.28,0.96-22.8,2.88l-89.6,23.36c-4.88,1.28-9.84,1.92-14.72,1.92c-2.96,0-5.84-0.16-8.72-0.64l-106-15.92
		c-4.48-0.64-9.04-0.96-13.52-0.96c-24.96,0-49.04,10.32-66.32,28.96l-48.96,53.52c-20.88,22.56-28.96,53.76-21.52,83.6
		l40.72,136.56l-1.44,22.56l-1.04,16.48c-4.88,77.76,56.96,143.6,134.96,143.6h114.887h29.273c78,0,139.84-65.84,134.96-143.6
		l-1.04-16.48l-2.64-42.48l8.88-26.72l0-0.007l31.84-95.833C504.945,165.852,505.985,151.692,503.825,138.172z M470.305,169.532
		l-23.182,69.76h-0.018l-2.88,8.72h-21.172H64.385c-0.16,0-0.4,0-0.56,0.08l-21.2-71.04c-4.8-19.28,0.4-39.52,13.92-54.08
		l49.04-53.52c11.12-12.08,26.72-18.72,42.88-18.72c2.88,0,5.76,0.16,8.64,0.64l106,15.92c4.48,0.64,9.04,0.96,13.52,0.96
		c7.68,0,15.28-0.96,22.8-2.96l89.6-23.36c4.96-1.28,10-1.92,14.96-1.92c11.2,0,22.16,3.28,31.84,9.6c14,9.2,23.2,23.36,25.76,39.84
		l10.64,53.68C473.585,151.932,472.945,161.052,470.305,169.532z"/>
	<path fill="#666666" d="M503.825,138.172c2.16,13.52,1.12,27.68-2.88,40.72l-40.72,122.56l-2.88-45.92c-0.24-4.24-3.76-7.52-8-7.52
		h-5.12l26.08-78.48c2.64-8.48,3.28-17.6,1.92-26.4l-10.64-53.68c-2.56-16.48-11.76-30.64-25.76-39.84
		c-9.68-6.32-20.64-9.6-31.84-9.6c-4.96,0-10,0.64-14.96,1.92l-89.6,23.36c-7.52,2-15.12,2.96-22.8,2.96
		c-4.48,0-9.04-0.32-13.52-0.96l-106-15.92c-2.88-0.48-5.76-0.64-8.64-0.64c-16.16,0-31.76,6.64-42.88,18.72l-49.04,53.52
		c-13.52,14.56-18.72,34.8-13.92,54.08l21.2,71.04c-4,0.24-7.2,3.36-7.44,7.44l-4.08,65.84l-40.72-136.56
		c-7.44-29.84,0.64-61.04,21.52-83.6l48.96-53.52c17.28-18.64,41.36-28.96,66.32-28.96c4.48,0,9.04,0.32,13.52,0.96l106,15.92
		c2.88,0.48,5.76,0.64,8.72,0.64c4.88,0,9.84-0.64,14.72-1.92l89.6-23.36c7.52-1.92,15.2-2.88,22.8-2.88
		c17.44,0,34.8,5.04,49.6,14.72c21.36,14,35.92,36.48,39.92,61.68L503.825,138.172z"/>
	<path fill="#9E7059" d="M463.905,360.412c4.88,77.76-56.96,143.6-134.96,143.6h-144.16c-78,0-139.84-65.84-134.96-143.6l1.04-16.48
		l90,21.04c25.04,5.84,50.48,9.76,75.92,11.76h0.08c0.4,8.48,7.44,15.28,16,15.28v33.68c0,6.96,1.76,13.68,4.96,19.68
		s7.84,11.12,13.6,15.04c1.6,1.04,3.52,1.6,5.44,1.6c1.92,0,3.84-0.56,5.44-1.6c11.6-7.76,18.56-20.8,18.56-34.72v-33.68
		c4.4,0,8.4-1.76,11.28-4.72c2.8-2.72,4.48-6.4,4.72-10.56c25.52-2,50.96-5.92,76-11.76l90-21.04L463.905,360.412z"/>
	<path fill="#D58936" d="M52.305,321.372l4.08-65.84c0.24-4.08,3.44-7.2,7.44-7.44c0.16-0.08,0.4-0.08,0.56-0.08h379.84h5.12
		c4.24,0,7.76,3.28,8,7.52l2.88,45.92l2.64,42.48l-90,21.04c-25.04,5.84-50.48,9.76-76,11.76c0-0.24,0-0.48,0-0.72
		c0-8.8-7.2-16-16-16v-16c0-6.64-2.72-12.64-7.04-16.96c-4.32-4.32-10.32-7.04-16.96-7.04c-13.28,0-24,10.72-24,24v16
		c-4.4,0-8.4,1.76-11.28,4.72c-2.96,2.88-4.72,6.88-4.72,11.28c0,0.24,0,0.48,0,0.72h-0.08c-25.44-2-50.88-5.92-75.92-11.76
		l-90-21.04L52.305,321.372z"/>
	<path fill="#995B3F" d="M232.865,392.012v8.64c-10.4,0-17.92,0-17.92,0.08h-0.08c-25.68-2-51.28-5.92-76.48-11.76l-88.8-20.56
		c0-2.64,0.08-5.36,0.24-8l1.04-16.48l90,21.04c25.04,5.84,50.48,9.76,75.92,11.76h0.08
		C217.265,385.212,224.305,392.012,232.865,392.012z"/>
	<path fill="#C17223" d="M460.225,301.452l-2.88-45.92c-0.24-4.24-3.76-7.52-8-7.52h-5.12h-21.172
		c7.122,34.524,7.118,70.851,0.242,105.17l39.57-9.25L460.225,301.452z"/>
	<path fill="#4D4D4D" d="M469.105,274.732l-8.88,26.72l-2.88-45.92c-0.24-4.24-3.76-7.52-8-7.52h-5.12l2.88-8.72h12.24
		c4.24,0,7.76,3.28,8,7.52L469.105,274.732z"/>
	<path fill="#666666" d="M296.865,376.012c0,0.24,0,0.48,0,0.72c-0.24,4.16-1.92,7.84-4.72,10.56c-2.88,2.96-6.88,4.72-11.28,4.72
		h-48c-8.56,0-15.6-6.8-16-15.28c0-0.24,0-0.48,0-0.72c0-4.4,1.76-8.4,4.72-11.28c2.88-2.96,6.88-4.72,11.28-4.72h48
		C289.665,360.012,296.865,367.212,296.865,376.012z"/>
	<path fill="#4D4D4D" d="M296.865,376.012v0.72c-0.24,4.16-1.92,7.84-4.72,10.56c-2.88,2.96-6.88,4.72-11.28,4.72h-48
		c-8.56,0-15.6-6.8-16-15.28v-0.72c0-0.72,0.08-1.44,0.16-2.08c2.32,1.36,4.96,2.08,7.84,2.08h48c4.4,0,8.4-1.76,11.28-4.72
		c2.48-2.4,4.08-5.6,4.48-9.28C293.505,364.812,296.865,370.012,296.865,376.012z"/>
	<path fill="#FAA307" d="M280.865,392.012v33.68c0,13.92-6.96,26.96-18.56,34.72c-1.6,1.04-3.52,1.6-5.44,1.6
		c-1.92,0-3.84-0.56-5.44-1.6c-5.76-3.92-10.4-9.04-13.6-15.04s-4.96-12.72-4.96-19.68v-33.68H280.865z"/>
	<rect x="232.865" y="392.012" fill="#F48C06" width="48" height="16"/>
	<path fill="#995B3F" d="M463.905,360.412l-1.04-16.48l-1.439,0.336l-0.001-0.017l-88.56,20.72c-25.04,5.84-50.48,9.76-76,11.76
		c-0.24,4.16-1.92,7.84-4.72,10.56c-2.88,2.96-6.88,4.72-11.28,4.72v8.64v25.04c0,13.92-6.96,26.96-18.56,34.72
		c-1.2,0.8-2.56,1.28-4,1.52c2.48,3.28,5.6,6.08,9.12,8.48c1.6,1.04,3.52,1.6,5.44,1.6s3.84-0.56,5.44-1.6
		c11.6-7.76,18.56-20.8,18.56-34.72v-33.68c2.772,0,5.345-0.765,7.619-2.021c22.96-2.146,45.835-5.761,68.381-11.019l14.352-3.355
		c13.152-3.075,23.801,10.45,18.025,22.66c-21.058,44.517-56.379,80.295-105.57,95.735h29.273
		C406.945,504.012,468.785,438.172,463.905,360.412z"/>
	<path fill="#FAA307" d="M280.865,344.012v16h-48v-16c0-13.28,10.72-24,24-24c6.64,0,12.64,2.72,16.96,7.04
		C278.145,331.372,280.865,337.372,280.865,344.012z"/>
	<path fill="#FAA307" d="M78.223,280.65c2.261-2.276,4.216-5.493,5.049-7.865c2.134-6.072-1.354-11.574-6.204-11.207
		c-7.861,0.595-11.145,16.313-6.22,20.907C72.978,284.473,75.779,283.11,78.223,280.65z"/>
	<path fill="#FAA307" d="M69.859,288.012c-4.005,0-4.011,8,0,8C73.864,296.012,73.871,288.012,69.859,288.012z"/>
	<path fill="#808080" d="M230.062,370.492c-2.525,0-2.529,4,0,4C232.587,374.492,232.591,370.492,230.062,370.492z"/>
	<path fill="#472B3C" d="M501.139,83.239c-4.328-27.426-20.137-51.879-43.375-67.09C434.689,1.048,405.525-3.706,378.928,3.255
		L289.318,26.63c-6.645,1.727-13.5,2.09-20.258,1.078L163.068,11.809c-31.98-4.793-64.922,6.809-86.871,30.445l-48.961,53.52
		C4.482,120.282-4.26,154.282,3.943,187.063l40.258,135.308l-2.344,37.504c-2.492,39.875,11.203,77.867,38.555,106.984
		c27.355,29.117,64.422,45.152,104.371,45.152h144.164c39.949,0,77.016-16.035,104.371-45.152
		c27.352-29.117,41.047-67.109,38.555-106.984l-3.587-57.394l40.283-121.208c4.398-14.262,5.488-29.598,3.105-44.66L501.139,83.239z
		 M438.479,240.012H69.747L50.42,175.079c-4.16-16.637,0.324-34.078,12.035-46.691l48.961-53.516
		c11.234-12.109,28.152-18.082,44.531-15.594L261.939,75.18c13.262,1.969,26.605,1.25,39.492-2.105L391.041,49.7
		c13.941-3.633,28.449-1.227,40.441,6.617c12.09,7.91,19.988,20.133,22.297,34.707l10.535,53.371
		c1.195,7.57,0.633,15.438-1.562,22.582L438.479,240.012z M421.654,455.907c-24.297,25.863-57.219,40.105-92.707,40.105H184.783
		c-35.488,0-68.41-14.242-92.707-40.105c-24.301-25.863-36.465-59.613-34.25-95.031l0.437-6.992l49.579,11.57
		c0.609,0.145,1.223,0.211,1.824,0.211c3.633,0,6.922-2.492,7.781-6.184c1.004-4.301-1.668-8.602-5.973-9.605l-52.199-12.182
		l5.105-81.682H449.35l5.105,81.682l-83.414,19.462c-22.201,5.182-44.92,8.785-67.636,10.898
		c-2.409-6.798-7.748-12.147-14.54-14.569v-9.474c0-17.645-14.355-32-32-32s-32,14.355-32,32v9.474
		c-6.799,2.424-12.142,7.785-14.547,14.593c-22.716-2.113-45.446-5.745-67.625-10.923c-4.312-1.027-8.605,1.672-9.609,5.969
		c-1.008,4.305,1.668,8.605,5.969,9.609c23.394,5.461,47.376,9.278,71.336,11.435c2.443,6.704,7.751,11.97,14.477,14.368v27.143
		c0,16.664,8.277,32.133,22.145,41.375c2.992,1.996,6.426,2.992,9.855,2.992c3.43,0,6.863-0.996,9.855-2.992
		c13.867-9.242,22.145-24.711,22.145-41.375v-9.668c0-4.418-3.582-8-8-8s-8,3.582-8,8v9.668c0,11.305-5.613,21.793-15.02,28.062
		c-0.594,0.398-1.367,0.398-1.961,0c-9.406-6.27-15.02-16.758-15.02-28.062v-25.668h40c10.371,0,19.141-6.648,22.488-15.877
		c23.954-2.159,47.918-5.936,71.321-11.4l80.793-18.851l0.437,6.992C458.119,396.294,445.955,430.044,421.654,455.907z
		 M232.865,384.012c-4.41,0-8-3.59-8-8s3.59-8,8-8h48c4.41,0,8,3.59,8,8s-3.59,8-8,8H232.865z M272.865,352.012h-32v-8
		c0-8.824,7.176-16,16-16c8.824,0,16,7.176,16,16V352.012z M493.334,176.391l-27.717,83.399l-0.298-4.774
		c-0.4-6.436-4.609-11.777-10.335-13.946l23.003-69.214c2.969-9.633,3.703-19.988,2.078-30.254l-10.535-53.371
		c-2.965-18.797-13.367-34.887-29.289-45.305c-15.734-10.293-34.941-13.465-53.234-8.711L297.393,57.59
		c-10.809,2.82-21.949,3.422-33.082,1.766L158.326,43.458c-21.52-3.234-43.828,4.582-58.676,20.57l-48.961,53.516
		c-15.367,16.551-21.27,39.512-15.699,61.758l19.185,64.477c-3.269,2.729-5.48,6.693-5.763,11.234L47.1,276.012L19.373,182.84
		c-6.793-27.172,0.527-55.652,19.629-76.227l48.961-53.516c18.348-19.758,45.949-29.469,72.734-25.469l105.984,15.898
		c8.871,1.34,17.934,0.859,26.672-1.414l89.617-23.379c22.262-5.832,46.707-1.844,66.031,10.805
		c19.465,12.738,32.707,33.219,36.387,56.492l10.535,53.375C497.877,151.774,496.959,164.618,493.334,176.391z"/>
</g>
</svg>
