<?xml version="1.0" encoding="UTF-8" standalone="no"?> <svg xmlns="http://www.w3.org/2000/svg" viewBox="0 0 64 64"><g id="Layer_16" data-name="Layer 16"><path d="M55.86,50.16c3.4-.5,3.62-1.16,3.64-1.23s-.22-.58-1.23-1.21C50.21,45,45.14,43.2,44.13,42.88c-3.65,2.87-7.18,3.66-10.48,2.36-4.3-.76-11.49-11.56-22-33C7.67,15.8,5.1,20,4.54,25.15a31.28,31.28,0,0,1,6.79,5c4.07,1.52,8,6.73,12,15.91,1.6,4.3,6.28,6.37,13.94,6.17A112.73,112.73,0,0,0,55.86,50.16Z"/><path d="M7.79,51.23l1,0c-.2-7.13-.42-12.76-.66-17.19-.43-2.65-.46-4,1-4.51a36.7,36.7,0,0,0-4.29-3C6.7,32.69,7.68,41,7.79,51.23Z"/><path d="M33.86,44.26c2.66,1.07,5.37.69,8.3-1.21-4.21.44-8.57-.76-10.85-3.65a63.71,63.71,0,0,1-8-11C16,15.17,13.45,12.37,12.6,11.84,25.32,37.84,31.18,43.84,33.86,44.26Z"/></g></svg>